<svg data-v-fde0c5aa="" xmlns="http://www.w3.org/2000/svg" viewBox="0 0 300 300" class="iconLeftSlogan"><!----><defs data-v-fde0c5aa=""><!----></defs><rect data-v-fde0c5aa="" fill="#DEE5F3" x="0" y="0" width="300px" height="300px" class="logo-background-square"></rect><defs data-v-fde0c5aa=""><!----></defs><g data-v-fde0c5aa="" id="17df3d10-e873-4ac0-8fa6-8e9ec78ded0e" fill="#0C203C" transform="matrix(1.7661222796920955,0,0,1.7661222796920955,155.30427636329813,119.76023860735636)"><path d="M8.29 13.87L5.85 5.67C5.71 5.17 5.26 5.04 4.80 5.04C4.26 5.04 3.71 5.12 3.15 5.31L0.43 13.41C0.31 13.80 0.24 14.17 0.24 14.41C0.24 14.98 0.57 15.22 1.33 15.22C1.82 15.22 2.11 15.12 2.39 15.01C2.30 14.91 2.24 14.77 2.24 14.55C2.24 14.34 2.28 14.13 2.34 13.90L2.77 12.18L5.82 12.18L6.43 14.46C6.54 14.97 7 15.22 7.60 15.22C8.25 15.22 8.58 14.98 8.75 14.78C8.51 14.53 8.36 14.11 8.29 13.87ZM3.02 11.14L4.27 6.19L5.56 11.14ZM11.24 15.16C11.93 15.16 12.52 14.74 12.52 14.15C12.52 13.99 12.46 13.75 12.32 13.55C12.24 13.69 12.04 13.73 11.91 13.73C11.59 13.73 11.42 13.48 11.42 12.99L11.42 7.91C11.42 6.75 11.47 6.08 11.70 5.18C11.55 5.04 11.17 4.76 10.61 4.76C9.98 4.76 9.51 5.12 9.51 5.75L9.51 13.16C9.51 14.39 10.11 15.16 11.24 15.16ZM17.81 7.59C16.67 7.59 15.89 8.19 15.47 9.49C15.34 8.34 14.87 7.66 13.99 7.66C13.30 7.66 12.82 8.06 12.82 8.64C12.82 8.81 12.88 9.04 13.01 9.24C13.09 9.11 13.27 9.09 13.37 9.09C13.62 9.09 13.73 9.31 13.73 9.81L13.72 17.07C13.72 17.68 14.21 18.05 14.83 18.05C15.37 18.05 15.76 17.78 15.93 17.63C15.67 16.70 15.62 15.60 15.62 14.97L15.62 14.41C15.89 14.94 16.48 15.22 17.29 15.22C19.14 15.22 20.33 13.82 20.33 11.14C20.33 9.20 19.67 7.59 17.81 7.59ZM16.80 14.24C15.96 14.24 15.65 13.57 15.65 12.12C15.65 10.47 16.11 8.61 17.22 8.61C18.06 8.61 18.27 9.56 18.27 11.13C18.27 13.10 17.86 14.24 16.80 14.24ZM28.43 13.55C28.34 13.69 28.15 13.73 28.06 13.73C27.75 13.73 27.59 13.48 27.59 12.99L27.59 10.63C27.59 8.44 26.66 7.59 24.57 7.59C22.74 7.59 21.56 8.20 21.56 9.32C21.56 10.05 22.08 10.63 22.99 10.63C23.39 10.63 23.79 10.51 24.01 10.29C23.62 10.07 23.52 9.63 23.52 9.25C23.52 8.51 23.91 8.22 24.46 8.22C25.34 8.22 25.62 8.99 25.62 10.50L25.62 10.85C25.09 10.88 24.42 10.93 23.67 11.14C22.51 11.48 21.22 12.17 21.22 13.51C21.22 14.59 22.01 15.16 23.07 15.16C24.36 15.16 25.27 14.38 25.76 13.33C25.87 14.69 26.43 15.16 27.29 15.16C28.11 15.16 28.62 14.70 28.62 14.15C28.62 13.99 28.56 13.75 28.43 13.55ZM24.08 13.92C23.55 13.97 23.34 13.51 23.34 13.03C23.34 12.47 23.66 12.03 24.11 11.77C24.54 11.52 25.13 11.47 25.68 11.47C25.68 12.84 24.79 13.85 24.08 13.92ZM31.91 18.16C34.05 18.16 35.63 17.19 35.63 14.41L35.63 8.51C34.94 7.94 33.84 7.59 32.62 7.59C30.10 7.59 29.18 9.24 29.18 11.54C29.18 14.07 30.20 14.99 31.67 14.99C32.72 14.99 33.42 14.50 33.74 13.62C33.73 13.96 33.73 14.42 33.73 14.67C33.73 16.39 33.14 17.58 31.96 17.58C31.28 17.58 31.01 17.18 31.01 16.66C31.01 16.30 31.15 15.95 31.43 15.69C31.26 15.48 30.95 15.37 30.55 15.37C29.78 15.37 29.23 15.83 29.23 16.55C29.23 17.71 30.49 18.16 31.91 18.16ZM32.26 14.11C31.46 14.11 31.22 13.50 31.22 11.73C31.22 9.52 31.51 8.23 32.73 8.23C33.11 8.23 33.49 8.34 33.73 8.53L33.71 11.54C33.70 13.16 33.21 14.11 32.26 14.11ZM40.29 15.22C42.48 15.22 43.75 13.80 43.75 11.41C43.75 9.00 42.48 7.59 40.29 7.59C38.11 7.59 36.83 9.00 36.83 11.41C36.83 13.80 38.11 15.22 40.29 15.22ZM40.29 14.57C39.33 14.57 38.89 13.51 38.89 11.41C38.89 9.30 39.33 8.23 40.29 8.23C41.24 8.23 41.68 9.30 41.68 11.41C41.68 13.51 41.24 14.57 40.29 14.57ZM47.43 18.16C49.57 18.16 51.16 17.19 51.16 14.41L51.16 8.51C50.47 7.94 49.36 7.59 48.15 7.59C45.63 7.59 44.70 9.24 44.70 11.54C44.70 14.07 45.72 14.99 47.19 14.99C48.24 14.99 48.94 14.50 49.27 13.62C49.25 13.96 49.25 14.42 49.25 14.67C49.25 16.39 48.66 17.58 47.49 17.58C46.80 17.58 46.54 17.18 46.54 16.66C46.54 16.30 46.68 15.95 46.96 15.69C46.79 15.48 46.48 15.37 46.07 15.37C45.30 15.37 44.76 15.83 44.76 16.55C44.76 17.71 46.02 18.16 47.43 18.16ZM47.78 14.11C46.98 14.11 46.75 13.50 46.75 11.73C46.75 9.52 47.04 8.23 48.26 8.23C48.64 8.23 49.01 8.34 49.25 8.53L49.24 11.54C49.22 13.16 48.73 14.11 47.78 14.11ZM55.82 15.22C58.00 15.22 59.28 13.80 59.28 11.41C59.28 9.00 58.00 7.59 55.82 7.59C53.63 7.59 52.36 9.00 52.36 11.41C52.36 13.80 53.63 15.22 55.82 15.22ZM55.82 14.57C54.85 14.57 54.42 13.51 54.42 11.41C54.42 9.30 54.85 8.23 55.82 8.23C56.77 8.23 57.20 9.30 57.20 11.41C57.20 13.51 56.77 14.57 55.82 14.57Z"></path></g><defs data-v-fde0c5aa=""><linearGradient data-v-fde0c5aa="" gradientTransform="rotate(25)" id="00d547a9-9442-4409-b0ad-ff396fbfc4d2" x1="0%" y1="0%" x2="100%" y2="0%"><stop data-v-fde0c5aa="" offset="0%" stop-color="#288B58" stop-opacity="1"></stop><stop data-v-fde0c5aa="" offset="100%" stop-color="#1522F1" stop-opacity="1"></stop></linearGradient></defs><g data-v-fde0c5aa="" id="fcd66ae6-0fca-4bca-8a12-1519670f9cfc" stroke="none" fill="url(#00d547a9-9442-4409-b0ad-ff396fbfc4d2)" transform="matrix(1.1084766624053808,0,0,1.1084766624053808,35.9396506600553,94.57561506010342)"><path d="M89.749 48.852a3.29 3.29 0 0 1-3.207-3.304v-4.4c0-7.758-6.313-14.07-14.07-14.07H30.058v4.527c0 2.231.729 4.295 1.961 5.966h-7.215v4.527c0 5.112 3.827 9.348 8.766 9.994v.817c0 4.909 3.528 9.01 8.182 9.9v.035c0 5.558 4.521 10.079 10.079 10.079h32.462a6.799 6.799 0 0 0 6.791-6.79 6.794 6.794 0 0 0-1.1-3.725c3.54-.227 6.354-3.171 6.354-6.768a6.76 6.76 0 0 0-6.589-6.788zm-5.457 20.276H51.83c-3.416 0-6.2-2.742-6.277-6.141H59.72a1.897 1.897 0 1 0 0-3.794H43.649a6.291 6.291 0 0 1-6.284-6.285v-.732h13.59a1.897 1.897 0 1 0 0-3.794H34.884a6.291 6.291 0 0 1-6.284-6.285v-.733h38.619c5.666 0 10.275 4.61 10.275 10.276v4.4a7.068 7.068 0 0 0 6.889 7.097 2.98 2.98 0 0 1 2.906 2.995 3 3 0 0 1-2.997 2.996zm5.254-10.493h-6.991a3.28 3.28 0 0 1-1.267-2.594v-4.4c0-7.758-6.313-14.07-14.07-14.07H38.174c-2.506-.827-4.321-3.187-4.321-5.966v-.733h38.619c5.666 0 10.275 4.61 10.275 10.276v4.4a7.068 7.068 0 0 0 6.889 7.097 2.98 2.98 0 0 1 2.906 2.995 3 3 0 0 1-2.996 2.995zM34.346 66.543H15.31a1.561 1.561 0 0 0 0 3.122h19.036a1.561 1.561 0 0 0 0-3.122zM29.328 61.09a1.56 1.56 0 0 0-1.561-1.561H9.772a1.561 1.561 0 0 0 0 3.122h17.995a1.56 1.56 0 0 0 1.561-1.561zM22.209 54.078a1.56 1.56 0 0 0-1.561-1.561H5.224a1.561 1.561 0 0 0 0 3.122h15.425c.862-.001 1.56-.7 1.56-1.561z"></path></g><defs data-v-fde0c5aa=""><!----></defs><g data-v-fde0c5aa="" id="2814cc7f-cfa8-4faf-a012-714b3f9226cf" fill="#0C203C" transform="matrix(0.7082723366943519,0,0,0.7082723366943519,155.38817499214477,158.46164245230017)"><path d="M6.59 12.98C6.29 13.57 5.63 14.03 4.59 14.03C3.43 14.03 2.70 13.45 2.56 11.80C3.05 11.86 3.50 11.86 3.93 11.86C5.71 11.86 6.94 11.10 6.94 9.72C6.94 8.30 5.67 7.59 4.06 7.59C1.74 7.59 0.48 9.03 0.48 11.38C0.48 13.83 1.88 15.22 4.05 15.22C5.38 15.22 6.36 14.70 6.72 13.79C6.93 13.27 6.79 13.06 6.59 12.98ZM3.99 8.23C4.44 8.23 4.87 8.46 4.87 9.39C4.87 11.05 3.63 11.17 2.80 11.16C2.70 11.16 2.62 11.16 2.53 11.14L2.53 11.13C2.53 9.32 3.07 8.23 3.99 8.23ZM13.27 7.60C12.81 7.60 12.54 7.70 12.28 7.81C12.36 7.91 12.40 8.05 12.40 8.27C12.40 8.50 12.36 8.69 12.32 8.92L11.09 14.04L9.66 8.36C9.55 7.85 9.11 7.60 8.53 7.60C7.92 7.60 7.60 7.84 7.43 8.04C7.67 8.29 7.80 8.72 7.88 8.95L9.74 14.60C9.90 15.08 10.30 15.23 10.75 15.23C11.19 15.23 11.61 15.13 12.04 14.95L14.13 9.41C14.28 9.04 14.32 8.67 14.32 8.41C14.32 7.84 14.01 7.60 13.27 7.60ZM21.11 12.98C20.80 13.57 20.15 14.03 19.11 14.03C17.95 14.03 17.22 13.45 17.08 11.80C17.57 11.86 18.02 11.86 18.45 11.86C20.23 11.86 21.46 11.10 21.46 9.72C21.46 8.30 20.19 7.59 18.58 7.59C16.25 7.59 14.99 9.03 14.99 11.38C14.99 13.83 16.39 15.22 18.56 15.22C19.89 15.22 20.87 14.70 21.24 13.79C21.45 13.27 21.31 13.06 21.11 12.98ZM18.51 8.23C18.96 8.23 19.39 8.46 19.39 9.39C19.39 11.05 18.14 11.17 17.32 11.16C17.22 11.16 17.14 11.16 17.05 11.14L17.05 11.13C17.05 9.32 17.58 8.23 18.51 8.23ZM26.53 7.59C25.62 7.59 25.02 8.08 24.68 9.11C24.60 8.08 24.05 7.59 23.25 7.59C22.51 7.59 22.11 8.01 22.11 8.58C22.11 8.81 22.16 8.99 22.29 9.18C22.37 9.04 22.55 9.02 22.65 9.02C22.89 9.02 23.02 9.23 23.02 9.76L23.02 14.08C23.02 14.78 23.55 15.18 24.14 15.18C24.68 15.16 25.07 14.91 25.24 14.76C24.92 14 24.92 13.50 24.92 11.73C24.92 9.55 25.31 8.47 25.97 8.47C26.36 8.47 26.54 8.74 26.54 9.20C26.54 9.58 26.49 9.80 26.29 10.16C26.46 10.36 26.78 10.47 27.17 10.47C27.85 10.46 28.35 9.93 28.35 9.20C28.35 8.19 27.59 7.59 26.53 7.59ZM31.56 7.80C31.60 7.29 31.67 6.86 31.81 6.34C31.65 6.20 31.28 5.92 30.72 5.92C30.09 5.92 29.61 6.29 29.61 6.90L29.61 7.80L29.08 7.80C28.81 7.80 28.59 7.94 28.57 8.25L28.56 8.71C28.74 8.68 29.22 8.65 29.40 8.65L29.61 8.65L29.61 13.16C29.61 14.39 30.23 15.16 31.36 15.16C32.31 15.16 32.90 14.74 32.90 14.15C32.90 13.99 32.84 13.75 32.70 13.55C32.63 13.69 32.34 13.73 32.16 13.73C31.74 13.73 31.53 13.48 31.53 12.99L31.53 9.06L31.53 8.65L32.73 8.65C33.00 8.65 33.21 8.50 33.22 8.19L33.24 7.74C33.11 7.77 31.85 7.80 31.56 7.80ZM40.64 12.98L40.64 10.39C40.64 8.53 39.93 7.59 38.39 7.59C37.34 7.59 36.65 8.09 36.27 8.99L36.27 8.61C36.29 7.21 36.33 6.10 36.61 5.18C36.43 5.04 35.90 4.72 35.29 4.77C34.78 4.82 34.38 5.12 34.40 5.75L34.40 14.14C34.40 14.81 34.89 15.23 35.52 15.23C36.05 15.23 36.44 14.97 36.61 14.81C36.29 14.06 36.29 13.55 36.29 11.73C36.29 9.56 36.88 8.47 37.73 8.47C38.54 8.47 38.72 9.28 38.72 10.70L38.72 14.24C38.72 14.85 39.20 15.23 39.83 15.23C40.32 15.23 40.67 15.02 40.92 14.80C40.68 14.18 40.64 13.40 40.64 12.98ZM43.39 6.96C43.99 6.96 44.46 6.48 44.46 5.88C44.46 5.26 43.99 4.79 43.39 4.79C42.77 4.79 42.29 5.26 42.29 5.88C42.29 6.48 42.77 6.96 43.39 6.96ZM44.41 12.98L44.39 8.57C44.39 7.94 43.93 7.57 43.30 7.57C42.77 7.57 42.39 7.85 42.22 7.99C42.46 8.62 42.50 9.30 42.50 9.83L42.50 14.24C42.50 14.85 42.98 15.23 43.58 15.23C44.13 15.23 44.52 14.95 44.69 14.80C44.44 14.18 44.41 13.51 44.41 12.98ZM52.70 12.98L52.70 10.39C52.70 8.53 51.98 7.59 50.44 7.59C49.22 7.59 48.48 8.19 48.12 9.24C48.06 8.12 47.50 7.59 46.68 7.59C45.93 7.59 45.53 8.01 45.53 8.58C45.53 8.81 45.58 8.99 45.71 9.18C45.79 9.04 45.98 9.02 46.07 9.02C46.31 9.02 46.42 9.23 46.44 9.76L46.44 14.14C46.44 14.81 46.91 15.23 47.57 15.23C48.09 15.23 48.50 14.97 48.66 14.81C48.34 14.06 48.34 13.55 48.34 11.73C48.34 9.60 48.93 8.54 49.78 8.54C50.60 8.54 50.76 9.34 50.78 10.70L50.78 14.24C50.78 14.85 51.25 15.23 51.88 15.23C52.36 15.23 52.72 15.04 52.99 14.80C52.74 14.18 52.71 13.40 52.70 12.98ZM56.76 18.16C58.90 18.16 60.48 17.19 60.48 14.41L60.48 8.51C59.79 7.94 58.69 7.59 57.47 7.59C54.95 7.59 54.03 9.24 54.03 11.54C54.03 14.07 55.05 14.99 56.52 14.99C57.57 14.99 58.27 14.50 58.59 13.62C58.58 13.96 58.58 14.42 58.58 14.67C58.58 16.39 57.99 17.58 56.81 17.58C56.13 17.58 55.86 17.18 55.86 16.66C55.86 16.30 56 15.95 56.28 15.69C56.11 15.48 55.80 15.37 55.40 15.37C54.63 15.37 54.08 15.83 54.08 16.55C54.08 17.71 55.34 18.16 56.76 18.16ZM57.11 14.11C56.31 14.11 56.07 13.50 56.07 11.73C56.07 9.52 56.36 8.23 57.58 8.23C57.96 8.23 58.34 8.34 58.58 8.53L58.56 11.54C58.55 13.16 58.06 14.11 57.11 14.11ZM67.49 15.23C67.96 15.23 68.42 15.13 68.88 14.95L70.06 9.49L71.25 14.60C71.36 15.08 71.82 15.23 72.25 15.23C72.69 15.23 73.11 15.13 73.56 14.95L75.45 9.41C75.59 9.04 75.64 8.67 75.64 8.41C75.64 7.84 75.33 7.60 74.59 7.60C74.13 7.60 73.86 7.70 73.60 7.81C73.67 7.91 73.72 8.05 73.72 8.27C73.72 8.50 73.68 8.69 73.64 8.92L72.59 13.93L71.36 8.32C71.22 7.76 70.62 7.60 70.06 7.60C69.72 7.62 69.22 7.64 68.81 7.81C68.89 7.91 68.94 8.05 68.94 8.27C68.94 8.50 68.91 8.71 68.87 8.92L67.83 13.93L66.58 8.36C66.47 7.85 66.04 7.60 65.45 7.60C64.85 7.60 64.53 7.84 64.36 8.04C64.60 8.29 64.72 8.72 64.81 8.95L66.49 14.60C66.64 15.08 67.05 15.23 67.49 15.23ZM77.80 6.96C78.40 6.96 78.88 6.48 78.88 5.88C78.88 5.26 78.40 4.79 77.80 4.79C77.18 4.79 76.71 5.26 76.71 5.88C76.71 6.48 77.18 6.96 77.80 6.96ZM78.82 12.98L78.81 8.57C78.81 7.94 78.34 7.57 77.71 7.57C77.18 7.57 76.80 7.85 76.64 7.99C76.87 8.62 76.92 9.30 76.92 9.83L76.92 14.24C76.92 14.85 77.39 15.23 77.99 15.23C78.54 15.23 78.93 14.95 79.10 14.80C78.85 14.18 78.82 13.51 78.82 12.98ZM82.36 15.16C83.05 15.16 83.64 14.74 83.64 14.15C83.64 13.99 83.58 13.75 83.44 13.55C83.36 13.69 83.16 13.73 83.03 13.73C82.71 13.73 82.54 13.48 82.54 12.99L82.54 7.91C82.54 6.75 82.59 6.08 82.82 5.18C82.67 5.04 82.29 4.76 81.73 4.76C81.10 4.76 80.63 5.12 80.63 5.75L80.63 13.16C80.63 14.39 81.23 15.16 82.36 15.16ZM86.46 15.16C87.15 15.16 87.74 14.74 87.74 14.15C87.74 13.99 87.68 13.75 87.54 13.55C87.46 13.69 87.26 13.73 87.14 13.73C86.81 13.73 86.65 13.48 86.65 12.99L86.65 7.91C86.65 6.75 86.69 6.08 86.93 5.18C86.77 5.04 86.39 4.76 85.83 4.76C85.20 4.76 84.73 5.12 84.73 5.75L84.73 13.16C84.73 14.39 85.33 15.16 86.46 15.16ZM94.79 15.22C97.22 15.22 98.22 13.66 98.22 11.14C98.22 8.58 97.20 7.59 95.73 7.59C94.68 7.59 93.94 8.12 93.63 8.99L93.63 8.23C93.63 7.55 93.67 6.27 93.94 5.18C93.76 5.04 93.32 4.76 92.75 4.76C92.18 4.76 91.73 5.12 91.73 5.75L91.73 14.29C92.39 14.87 93.55 15.22 94.79 15.22ZM94.65 14.46C94.28 14.46 93.90 14.34 93.65 14.17L93.65 11.55C93.65 9.94 94.18 8.58 95.27 8.58C95.91 8.58 96.17 9.35 96.17 11.14C96.17 12.94 95.94 14.45 94.65 14.46ZM105.29 12.98C104.99 13.57 104.33 14.03 103.29 14.03C102.13 14.03 101.40 13.45 101.26 11.80C101.75 11.86 102.20 11.86 102.63 11.86C104.41 11.86 105.64 11.10 105.64 9.72C105.64 8.30 104.37 7.59 102.76 7.59C100.44 7.59 99.18 9.03 99.18 11.38C99.18 13.83 100.58 15.22 102.75 15.22C104.08 15.22 105.06 14.70 105.42 13.79C105.63 13.27 105.49 13.06 105.29 12.98ZM102.69 8.23C103.14 8.23 103.57 8.46 103.57 9.39C103.57 11.05 102.33 11.17 101.50 11.16C101.40 11.16 101.32 11.16 101.23 11.14L101.23 11.13C101.23 9.32 101.77 8.23 102.69 8.23ZM112.94 15.22C115.36 15.22 116.37 13.66 116.37 11.14C116.37 8.58 115.35 7.59 113.88 7.59C112.83 7.59 112.08 8.12 111.78 8.99L111.78 8.23C111.78 7.55 111.82 6.27 112.08 5.18C111.90 5.04 111.47 4.76 110.89 4.76C110.32 4.76 109.87 5.12 109.87 5.75L109.87 14.29C110.53 14.87 111.69 15.22 112.94 15.22ZM112.80 14.46C112.42 14.46 112.04 14.34 111.79 14.17L111.79 11.55C111.79 9.94 112.32 8.58 113.41 8.58C114.06 8.58 114.31 9.35 114.31 11.14C114.31 12.94 114.09 14.45 112.80 14.46ZM123.44 12.98C123.13 13.57 122.47 14.03 121.44 14.03C120.27 14.03 119.55 13.45 119.41 11.80C119.90 11.86 120.34 11.86 120.78 11.86C122.56 11.86 123.79 11.10 123.79 9.72C123.79 8.30 122.51 7.59 120.90 7.59C118.58 7.59 117.32 9.03 117.32 11.38C117.32 13.83 118.72 15.22 120.89 15.22C122.22 15.22 123.20 14.70 123.56 13.79C123.77 13.27 123.63 13.06 123.44 12.98ZM120.83 8.23C121.28 8.23 121.72 8.46 121.72 9.39C121.72 11.05 120.47 11.17 119.64 11.16C119.55 11.16 119.46 11.16 119.38 11.14L119.38 11.13C119.38 9.32 119.91 8.23 120.83 8.23ZM127.26 7.80C127.30 7.29 127.37 6.86 127.51 6.34C127.36 6.20 126.98 5.92 126.42 5.92C125.79 5.92 125.31 6.29 125.31 6.90L125.31 7.80L124.78 7.80C124.52 7.80 124.29 7.94 124.28 8.25L124.26 8.71C124.45 8.68 124.92 8.65 125.10 8.65L125.31 8.65L125.31 13.16C125.31 14.39 125.93 15.16 127.06 15.16C128.02 15.16 128.60 14.74 128.60 14.15C128.60 13.99 128.55 13.75 128.41 13.55C128.34 13.69 128.04 13.73 127.86 13.73C127.44 13.73 127.23 13.48 127.23 12.99L127.23 9.06L127.23 8.65L128.44 8.65C128.70 8.65 128.91 8.50 128.93 8.19L128.94 7.74C128.81 7.77 127.55 7.80 127.26 7.80ZM132.23 7.80C132.27 7.29 132.34 6.86 132.48 6.34C132.33 6.20 131.95 5.92 131.39 5.92C130.76 5.92 130.28 6.29 130.28 6.90L130.28 7.80L129.75 7.80C129.49 7.80 129.26 7.94 129.25 8.25L129.23 8.71C129.42 8.68 129.89 8.65 130.07 8.65L130.28 8.65L130.28 13.16C130.28 14.39 130.90 15.16 132.03 15.16C132.99 15.16 133.57 14.74 133.57 14.15C133.57 13.99 133.52 13.75 133.38 13.55C133.31 13.69 133.01 13.73 132.83 13.73C132.41 13.73 132.20 13.48 132.20 12.99L132.20 9.06L132.20 8.65L133.41 8.65C133.67 8.65 133.88 8.50 133.90 8.19L133.91 7.74C133.78 7.77 132.52 7.80 132.23 7.80ZM140.46 12.98C140.15 13.57 139.50 14.03 138.46 14.03C137.30 14.03 136.57 13.45 136.43 11.80C136.92 11.86 137.37 11.86 137.80 11.86C139.58 11.86 140.81 11.10 140.81 9.72C140.81 8.30 139.54 7.59 137.93 7.59C135.60 7.59 134.34 9.03 134.34 11.38C134.34 13.83 135.74 15.22 137.91 15.22C139.24 15.22 140.22 14.70 140.59 13.79C140.80 13.27 140.66 13.06 140.46 12.98ZM137.86 8.23C138.31 8.23 138.74 8.46 138.74 9.39C138.74 11.05 137.49 11.17 136.67 11.16C136.57 11.16 136.49 11.16 136.40 11.14L136.40 11.13C136.40 9.32 136.93 8.23 137.86 8.23ZM145.88 7.59C144.97 7.59 144.37 8.08 144.03 9.11C143.95 8.08 143.40 7.59 142.60 7.59C141.86 7.59 141.46 8.01 141.46 8.58C141.46 8.81 141.51 8.99 141.64 9.18C141.72 9.04 141.90 9.02 142.00 9.02C142.24 9.02 142.37 9.23 142.37 9.76L142.37 14.08C142.37 14.78 142.90 15.18 143.49 15.18C144.03 15.16 144.42 14.91 144.59 14.76C144.27 14 144.27 13.50 144.27 11.73C144.27 9.55 144.66 8.47 145.32 8.47C145.71 8.47 145.89 8.74 145.89 9.20C145.89 9.58 145.84 9.80 145.64 10.16C145.81 10.36 146.13 10.47 146.52 10.47C147.20 10.46 147.70 9.93 147.70 9.20C147.70 8.19 146.94 7.59 145.88 7.59Z"></path></g></svg>