<svg width="30" height="31" viewBox="0 0 30 31" fill="none" xmlns="http://www.w3.org/2000/svg">
<path d="M18.9375 6.40311C18.3574 6.57303 17.8301 6.87186 17.3848 7.28787L16.9688 7.67459L16.5 7.51639C15.8203 7.28201 15.1231 7.19998 14.502 7.28201C13.9512 7.35818 13.4121 7.51053 13.0078 7.71561L12.7441 7.84451L12.3457 7.48123C11.543 6.73123 10.459 6.38553 9.4043 6.53201C8.19141 6.69608 7.17188 7.40506 6.62696 8.45389C6.32813 9.02811 6.21094 9.51443 6.21094 10.1883C6.21094 10.9969 6.39844 11.6062 6.85547 12.2742C6.98438 12.4617 7.08985 12.6258 7.08985 12.6433C7.08985 12.6551 6.91407 12.7664 6.70313 12.8894C5.64844 13.5047 4.70508 14.6004 4.22461 15.7781C3.91407 16.5164 3.78516 17.1433 3.78516 17.9226C3.7793 18.6023 3.78516 18.6375 3.97266 19.0183C4.40626 19.8972 5.63086 20.6355 7.11915 20.9168C7.33008 20.9519 7.33594 20.9578 7.30079 21.1687C7.2129 21.6844 7.19532 22.5105 7.26563 22.8211C7.62891 24.368 9.32813 25.4051 12.3047 25.8855C14.6719 26.2722 17.707 26.0789 19.7227 25.4226C21.4922 24.8426 22.4883 23.9695 22.7344 22.7859C22.7988 22.4871 22.7871 21.5203 22.7168 21.2273C22.7109 21.1922 22.9277 21.1043 23.2031 21.034C24.8848 20.5769 25.8574 19.8562 26.1563 18.8367C26.2734 18.4441 26.2734 18.0281 26.1621 17.3015C25.8926 15.4851 24.7559 13.7918 23.1914 12.8719L22.7344 12.6023L22.9043 12.3914C23.1738 12.0515 23.4199 11.5711 23.5664 11.0965C23.7656 10.4519 23.7539 9.55545 23.5313 8.88748C23.3379 8.29568 22.9102 7.63358 22.459 7.23514C22.0488 6.87186 21.3516 6.49686 20.8535 6.37967C20.3379 6.26248 19.4063 6.2742 18.9375 6.40311ZM20.8418 8.36014C21.0059 8.44803 21.2461 8.63553 21.375 8.78787C22.1895 9.70779 21.9258 11.1726 20.8418 11.7176C20.5254 11.8816 20.0508 11.9754 19.7695 11.9344C19.5879 11.9051 19.5879 11.9051 19.5469 11.4656C19.4766 10.6277 19.207 9.88358 18.7266 9.19217L18.4629 8.81717L18.668 8.64139C19.2715 8.10818 20.127 8.00272 20.8418 8.36014ZM10.6348 8.54764C10.7988 8.62381 11.0156 8.78201 11.127 8.89334L11.3262 9.09842L11.1445 9.37967C10.752 9.9949 10.5176 10.7039 10.4531 11.4656C10.418 11.8465 10.3945 11.9109 10.2891 11.9402C10.0313 12.0105 9.54493 11.9695 9.24024 11.8582C8.03907 11.407 7.67579 9.8074 8.57813 8.91092C9.12891 8.35428 9.94922 8.21365 10.6348 8.54764ZM15.5332 9.18631C17.0391 9.50858 17.9883 11.0144 17.6074 12.4734C17.2852 13.6922 16.2539 14.4949 15 14.4949C13.7402 14.4949 12.7148 13.698 12.3926 12.4617C12.0176 11.0203 12.9551 9.51443 14.4316 9.19217C14.9063 9.09256 15.0645 9.0867 15.5332 9.18631ZM10.5176 13.9148L10.9629 13.9851L11.168 14.2957C11.2852 14.4715 11.4902 14.741 11.6309 14.8933L11.8887 15.1746L11.4961 15.368C10.1133 16.0476 8.80079 17.3484 8.05665 18.784C7.93946 19.0125 7.84571 19.1238 7.7754 19.1238C7.28907 19.1238 5.96485 18.6023 5.74805 18.3269C5.40821 17.8992 5.86524 16.3347 6.58008 15.4265C7.1836 14.6707 8.11524 14.1199 9.11133 13.9383C9.63868 13.8387 9.9668 13.8328 10.5176 13.9148ZM21.0059 13.9676C21.8438 14.1844 22.459 14.5359 23.0801 15.1512C23.7891 15.8601 24.2695 16.8914 24.3516 17.864C24.3867 18.2918 24.375 18.3504 24.2578 18.491C24.0879 18.7078 23.4141 19.0242 22.7461 19.2058L22.207 19.3523L22.0313 18.9597C21.7324 18.3152 21.1055 17.4363 20.5078 16.8328C19.875 16.1941 19.4004 15.8426 18.6387 15.4383L18.1055 15.157L18.2285 15.0457C18.4043 14.8933 18.832 14.3308 18.9434 14.1023C19.0606 13.8855 19.1191 13.8738 19.957 13.8562C20.3789 13.8504 20.6777 13.8855 21.0059 13.9676ZM15.5566 16.4285C18.3867 16.7273 20.5606 18.8719 20.8711 21.6726C20.9063 21.9949 20.918 22.3289 20.8945 22.4226C20.8242 22.7156 20.4609 23.0379 19.8984 23.3133C17.4727 24.5027 12.5273 24.5027 10.1016 23.3133C9.53907 23.0379 9.17579 22.7156 9.10547 22.4226C9.08204 22.3289 9.09376 21.9949 9.12891 21.6726C9.42188 19.0535 11.3965 16.9441 13.9746 16.493C14.2852 16.4344 14.4668 16.4168 14.9121 16.3816C14.9766 16.3758 15.2695 16.3992 15.5566 16.4285Z" fill="#696969"/>
</svg>
