<svg width="31" height="31" viewBox="0 0 31 31" fill="none" xmlns="http://www.w3.org/2000/svg">
<path d="M26.1632 2.19604C25.6886 2.30737 25.2785 2.55346 24.8742 2.97534C24.5402 3.31518 23.8898 4.31128 21.1711 8.59448C19.3546 11.4539 17.8546 13.8445 17.8312 13.8972C17.8136 13.9558 17.6964 14.9988 17.5734 16.2117C17.3273 18.532 17.3273 18.6609 17.5675 18.9656C17.8136 19.282 18.3351 19.3874 18.6984 19.2058C18.8039 19.1472 19.6945 18.6199 20.6847 18.0281C21.8859 17.3132 22.5304 16.8914 22.63 16.7624C22.7062 16.6628 24.2531 14.2429 26.0695 11.3894C28.3957 7.72729 29.4035 6.09253 29.5031 5.823C29.8429 4.8562 29.5675 3.69604 28.8234 2.94604C28.2785 2.40112 27.5988 2.12573 26.8312 2.13745C26.5851 2.14331 26.2863 2.16675 26.1632 2.19604ZM27.2707 4.10034C27.5695 4.24097 27.7218 4.49878 27.7511 4.87964C27.7687 5.2019 27.7628 5.22534 27.341 5.89331C27.1066 6.27417 26.8957 6.57886 26.8722 6.58472C26.8371 6.58472 25.3957 5.68823 25.3136 5.61792C25.3019 5.6062 25.4953 5.29565 25.7355 4.92065C26.0109 4.49878 26.2511 4.19995 26.3683 4.12378C26.6027 3.98315 26.9953 3.97143 27.2707 4.10034ZM25.1086 7.70972C25.5187 7.96753 25.8644 8.18433 25.8703 8.19018C25.8761 8.19604 24.8273 9.84253 23.55 11.8582L21.2179 15.5203L20.3566 16.0417C19.882 16.323 19.4777 16.5398 19.4601 16.5222C19.4425 16.5046 19.4718 16.0476 19.5246 15.5085L19.63 14.5242L21.9445 10.8738C23.2218 8.86987 24.2882 7.22925 24.3117 7.22925C24.3351 7.22925 24.6925 7.44604 25.1086 7.70972Z" fill="#696969"/>
<path d="M10.4191 5.00854C6.07144 5.51245 2.57925 8.81128 1.83511 13.1179C1.63003 14.2957 1.66519 15.7078 1.923 16.9089C2.72574 20.6003 5.69058 23.571 9.39371 24.3914C10.3781 24.6082 10.9523 24.6316 15.0421 24.6316H19.0265L19.0441 26.9109C19.0617 29.114 19.0675 29.2019 19.1847 29.3542C19.507 29.7878 19.9289 29.8699 21.0128 29.7058C22.5597 29.4714 24.0187 28.7332 25.2609 27.5613C27.3 25.6335 28.7121 22.7917 29.3976 19.241C29.8078 17.1375 29.9191 14.53 29.6671 13.1179C29.5031 12.1921 29.2863 11.5183 29.0871 11.3015C28.7062 10.8972 28.1085 10.9031 27.7218 11.3074C27.4699 11.5769 27.423 11.8464 27.5578 12.3269C27.7921 13.1824 27.8859 13.739 27.921 14.5242C27.9972 16.3347 27.675 18.8132 27.1359 20.5886C26.4269 22.9441 25.5363 24.5613 24.2238 25.9089C23.3625 26.7937 22.5363 27.3386 21.5871 27.6433C20.8312 27.8894 20.9132 28.1296 20.8957 25.575C20.8781 23.4363 20.8722 23.3425 20.755 23.1902C20.6906 23.1023 20.5617 22.9734 20.4738 22.9089C20.3156 22.7859 20.2453 22.7859 15.382 22.7507C10.6418 22.7214 10.425 22.7156 9.92105 22.5984C6.68081 21.8425 4.33706 19.4519 3.69839 16.2644C3.55777 15.5613 3.55777 14.0144 3.69839 13.3113C4.33706 10.1238 6.68081 7.73315 9.92105 6.97729C10.425 6.86011 10.6418 6.85425 15.382 6.82495C20.2453 6.78979 20.3156 6.78979 20.4738 6.66675C20.7843 6.43823 20.8781 6.25073 20.8781 5.88159C20.8781 5.51245 20.7843 5.32495 20.4738 5.09644C20.3156 4.97339 20.2628 4.97339 15.5871 4.96753C12.9855 4.96167 10.6593 4.97925 10.4191 5.00854Z" fill="#696969"/>
<path d="M9.74527 11.5886C9.35269 11.7585 9.13003 12.2097 9.21206 12.6492C9.2648 12.9246 9.55777 13.2468 9.82144 13.323C9.96792 13.3699 11.1867 13.3816 13.5363 13.3699C16.964 13.3523 17.0343 13.3523 17.1925 13.2292C17.5031 13.0007 17.5968 12.8132 17.5968 12.4441C17.5968 12.0749 17.5031 11.8874 17.1925 11.6589C17.0343 11.5359 16.964 11.5359 13.4777 11.5242C10.6125 11.5124 9.88589 11.5242 9.74527 11.5886Z" fill="#696969"/>
<path d="M9.74527 16.2761C9.35269 16.446 9.13003 16.8972 9.21206 17.3367C9.2648 17.6121 9.55777 17.9343 9.82144 18.0105C9.96792 18.0574 11.046 18.0691 13.0675 18.0574C16.0207 18.0398 16.0968 18.0339 16.255 17.9167C16.5656 17.6882 16.6593 17.5007 16.6593 17.1316C16.6593 16.7625 16.5656 16.575 16.255 16.3464C16.0968 16.2234 16.0207 16.2234 13.0089 16.2117C10.5304 16.2 9.88589 16.2117 9.74527 16.2761Z" fill="#696969"/>
</svg>
