<svg width="20" height="20" viewBox="0 0 20 20" fill="none" xmlns="http://www.w3.org/2000/svg">
<g clip-path="url(#clip0_342_665)">
<path d="M17.5352 0.882812C17.5 0.894531 15.3789 3.08203 12.8203 5.74219L8.16406 10.5859H4.18359H0.207031L0.0976562 10.6719L-0.0117188 10.7578L0.0117188 11.7344C0.0585938 13.7617 0.320312 14.7773 1.01562 15.6406C1.56641 16.3281 2.46484 16.9492 3.82812 17.5781C3.98828 17.6523 4.13281 17.7227 4.15234 17.7344C4.16797 17.75 4.12891 17.8633 4.0625 17.9922C3.91406 18.2891 3.83984 18.7773 3.91406 18.9336C4.01562 19.1484 3.85938 19.1406 8 19.1289L11.8438 19.1211L11.9219 19.0234C12.0352 18.8828 12.0039 18.3945 11.8594 18.0703C11.8008 17.9414 11.7695 17.8281 11.7852 17.8125C11.8047 17.8008 11.9648 17.7187 12.1484 17.6367C13.0391 17.2305 14.0039 16.6445 14.5664 16.1641C14.9648 15.8281 15.4102 15.3125 15.6406 14.9219C16.1445 14.0703 16.3516 13.1172 16.375 11.5547C16.3867 10.7969 16.3867 10.7812 16.2969 10.6953L16.207 10.6055L14.4961 10.5859L12.7812 10.5664L14.1328 9.14062C17.1055 6 19.918 2.94531 19.9766 2.79688C20.0352 2.64062 19.9336 2.48047 19.5391 2.10938C18.9414 1.54688 19.5547 1.01953 14.8242 6.17188L10.7773 10.5859H10.4766H10.1758L10.7656 9.98828C11.0898 9.66406 12.8281 7.875 14.6289 6.01562C16.4297 4.15625 18.0781 2.46094 18.2891 2.24219C18.625 1.89844 18.6719 1.83203 18.6719 1.71094C18.6719 1.55469 18.6094 1.48828 18.1211 1.14062C17.793 0.910156 17.6602 0.847656 17.5352 0.882812ZM17.8125 1.67969L17.9102 1.75391L17.5742 2.09766C17.3906 2.28516 16.6523 3.04688 15.9336 3.78906C15.2148 4.53125 13.4336 6.36328 11.9766 7.85938L9.32812 10.5859H9.16797H9.00781L9.37891 10.2031C9.58203 9.99609 11.5312 7.97266 13.707 5.71094C15.8789 3.45312 17.6719 1.60156 17.6875 1.60156C17.7031 1.60156 17.7578 1.63672 17.8125 1.67969ZM19.0508 2.92969C18.7773 3.20703 15.375 6.85547 13.4258 8.95312C11.9648 10.5273 11.9062 10.5859 11.7695 10.5859H11.625L11.7266 10.4766C11.7812 10.418 13.4453 8.59766 15.4297 6.43359L19.0312 2.49219L19.1445 2.60156L19.2578 2.71094L19.0508 2.92969ZM15.7734 11.2305C15.8086 11.2656 15.7031 12.793 15.6445 13.125C15.3984 14.5039 14.7031 15.4453 13.2617 16.3477C12.8516 16.6055 11.9375 17.0703 11.3984 17.3008L11.0195 17.4609H10.3789C9.79297 17.4609 9.73438 17.4687 9.65625 17.5391C9.47656 17.707 9.52734 17.9648 9.75 18.0469C9.80469 18.0703 10.1445 18.0859 10.5078 18.0859C11.1602 18.0859 11.1719 18.0859 11.2305 18.1797C11.2656 18.2305 11.3086 18.3281 11.3281 18.3945L11.3633 18.5156H7.94141H4.52344L4.54688 18.4102C4.5625 18.3477 4.60547 18.2578 4.64453 18.2031L4.71484 18.1055L6.28125 18.0859C7.74609 18.0664 7.84766 18.0625 7.92578 17.9922C8.05078 17.8789 8.03906 17.6484 7.90625 17.543C7.80469 17.4648 7.75781 17.4609 6.44531 17.4609H5.08984L4.56641 17.2305C2.51953 16.3359 1.57031 15.6172 1.09766 14.6055C0.800781 13.9727 0.679688 13.2812 0.636719 11.9648L0.613281 11.1602L8.18359 11.1875C12.3477 11.1992 15.7656 11.2188 15.7734 11.2305Z" fill="#696969"/>
</g>
<defs>
<clipPath id="clip0_342_665">
<rect width="20" height="20" fill="white"/>
</clipPath>
</defs>
</svg>
