<svg width="24" height="25" viewBox="0 0 24 25" fill="none" xmlns="http://www.w3.org/2000/svg">
<path d="M2.08594 3.03624C1.17656 3.22374 0.435937 3.8753 0.13125 4.76124L0.0234375 5.0753V12.13V19.1847L0.13125 19.4987C0.398437 20.2628 0.965625 20.8394 1.7625 21.1394L2.03906 21.2472L11.8359 21.2612C22.6687 21.2753 21.9703 21.2941 22.6031 20.98C22.9969 20.7831 23.5125 20.2675 23.7094 19.8737C24.0187 19.2456 24.0047 19.6347 23.9906 11.9659L23.9766 5.02843L23.8687 4.75186C23.5734 3.96905 23.0484 3.43468 22.275 3.13468L21.9609 3.0128L12.1172 3.00811C6.70312 3.00343 2.18906 3.01749 2.08594 3.03624ZM21.8203 4.4753C21.9562 4.51749 22.1297 4.62999 22.2422 4.74718C22.6219 5.12218 22.5937 4.56436 22.5937 12.13C22.5937 19.6956 22.6219 19.1378 22.2422 19.5128C21.8625 19.8972 22.7672 19.8644 12 19.8644C1.23281 19.8644 2.1375 19.8972 1.75781 19.5128C1.37812 19.1378 1.40625 19.6956 1.40625 12.13C1.40625 4.56436 1.37812 5.12218 1.75781 4.74718C2.12812 4.37218 1.23281 4.40499 11.9812 4.4003C20.8125 4.39561 21.6094 4.4003 21.8203 4.4753Z" fill="#696969"/>
<path d="M3.225 5.90029C3.02344 6.00342 2.85938 6.27998 2.85938 6.51435C2.85938 6.59873 2.90625 6.74873 2.96719 6.84248C3.04219 6.96904 4.05469 7.78467 6.46875 9.65498C10.3031 12.6362 10.0734 12.4581 10.4391 12.6409C11.4984 13.1659 12.8016 13.1284 13.7672 12.5425C13.9078 12.4581 15.5766 11.1784 17.475 9.70654C19.9734 7.76592 20.9578 6.97373 21.0328 6.84717C21.1641 6.62685 21.1687 6.41592 21.0469 6.17685C20.8969 5.88154 20.4984 5.72685 20.1937 5.84404C20.1328 5.86748 18.525 7.10029 16.6172 8.58623C14.7094 10.0722 13.0406 11.3425 12.9047 11.4034C12.3562 11.6659 11.6531 11.6659 11.1 11.4034C10.9641 11.3378 9.3 10.0769 7.40625 8.60029C5.50781 7.12842 3.9 5.89092 3.82969 5.8581C3.64687 5.77842 3.42656 5.79248 3.225 5.90029Z" fill="#696969"/>
</svg>
