<svg width="31" height="31" viewBox="0 0 31 31" fill="none" xmlns="http://www.w3.org/2000/svg">
<g clip-path="url(#clip0_299_528)">
<path d="M14.6527 0.229126C13.891 0.434204 13.2406 0.955688 12.8949 1.64709C12.7133 2.00452 12.7074 2.01038 12.4613 2.01038C11.5238 2.01038 10.475 2.6842 10.0473 3.55725L9.88907 3.87952L8.0961 3.89709C6.36172 3.91467 6.28555 3.92053 5.94571 4.0553C5.00235 4.4303 4.33438 5.22131 4.1586 6.17639C4.11758 6.39319 4.10586 10.0787 4.11172 17.2213L4.1293 27.9381L4.25235 28.2662C4.61563 29.2037 5.38321 29.8776 6.31485 30.0709C6.7543 30.1647 23.9457 30.1647 24.3852 30.0709C24.8539 29.9713 25.3695 29.7076 25.7035 29.3854C26.0492 29.0514 26.2367 28.776 26.4301 28.2897L26.5707 27.9381L26.5883 17.2213C26.5941 10.0787 26.5824 6.39319 26.5414 6.17639C26.5063 5.99475 26.3949 5.66077 26.2836 5.43811C25.9672 4.78772 25.475 4.34241 24.7543 4.0553C24.4145 3.92053 24.3383 3.91467 22.6039 3.89709L20.8109 3.87952L20.6527 3.55725C20.225 2.6842 19.1762 2.01038 18.2387 2.01038C17.9926 2.01038 17.9926 2.01038 17.7758 1.60022C17.1898 0.47522 15.8715 -0.098999 14.6527 0.229126ZM15.8422 2.02795C16.1352 2.19202 16.2992 2.46155 16.352 2.87756C16.3988 3.22327 16.516 3.42249 16.7797 3.61584C16.9145 3.72131 17.0551 3.74475 17.7113 3.76819C18.5668 3.80334 18.7602 3.8678 18.9887 4.1842C19.1586 4.42444 19.2055 4.89319 19.0824 5.1803C19.0356 5.29749 18.8949 5.46741 18.7719 5.56116L18.5551 5.73108H15.35H12.1449L11.9281 5.56116C11.8051 5.46741 11.6645 5.29749 11.6176 5.1803C11.4945 4.89319 11.5414 4.42444 11.7113 4.1842C11.9398 3.8678 12.1332 3.80334 12.9887 3.76819C13.6449 3.74475 13.7856 3.72131 13.9203 3.61584C14.184 3.42249 14.3012 3.22327 14.3481 2.87756C14.3715 2.70178 14.4418 2.46741 14.5063 2.35608C14.7641 1.92249 15.3852 1.76428 15.8422 2.02795ZM10.0414 5.96545C10.2231 6.36389 10.7563 6.93225 11.1606 7.16663C11.7641 7.51233 11.8461 7.51819 15.35 7.51819C18.8539 7.51819 18.9359 7.51233 19.5395 7.16663C19.9438 6.93225 20.477 6.36389 20.6586 5.96545L20.8051 5.64319H22.3871C23.6762 5.64319 24.0043 5.66077 24.1801 5.73108C24.4731 5.85413 24.602 5.97717 24.7309 6.25842C24.8363 6.48108 24.8422 6.92639 24.8422 17.0104C24.8422 27.1588 24.8363 27.5338 24.7309 27.7682C24.6723 27.903 24.5199 28.0846 24.3969 28.1783L24.1801 28.3483L15.5023 28.3658C10.727 28.3717 6.74258 28.3658 6.63711 28.3483C6.38516 28.3014 6.09805 28.0553 5.96915 27.7623C5.86368 27.5397 5.85782 27.0885 5.85782 17.0221C5.85782 7.69983 5.86954 6.4928 5.94571 6.3053C6.06876 6.01233 6.1918 5.88342 6.47305 5.75452C6.68399 5.65491 6.88321 5.64319 8.30118 5.64319H9.89493L10.0414 5.96545Z" fill="#696969"/>
<path d="M14.9633 8.6842C14.7699 8.77209 14.5356 9.08264 14.5004 9.32288C14.477 9.44006 14.4535 9.56897 14.4418 9.59827C14.4359 9.63342 14.2777 9.70374 14.102 9.76233C13.6859 9.89709 12.9887 10.3541 12.6547 10.7174C12.0805 11.3385 11.7348 12.1061 11.6762 12.8912C11.641 13.3073 11.6352 13.319 11.4887 13.319C11.4066 13.319 11.2484 13.3717 11.143 13.4362C10.5629 13.7936 10.5863 14.6432 11.1898 14.942L11.4477 15.0768H15.35H19.2523L19.5102 14.942C20.1137 14.6315 20.143 13.7936 19.557 13.4362C19.4516 13.3717 19.2934 13.319 19.2113 13.319C19.0648 13.319 19.059 13.3073 19.0238 12.8912C18.9594 12.0299 18.5258 11.151 17.8637 10.5358C17.4828 10.1901 16.932 9.85608 16.5277 9.73889C16.2582 9.65686 16.2582 9.65686 16.1996 9.31702C16.1762 9.18225 16.0883 9.00647 15.9711 8.87756C15.7953 8.69006 15.7426 8.66663 15.432 8.64905C15.2445 8.64319 15.0336 8.65491 14.9633 8.6842ZM16.2465 11.526C16.7973 11.7955 17.184 12.358 17.2602 12.9967L17.3012 13.319H15.35H13.3988L13.4398 12.9967C13.5219 12.2584 13.9848 11.6783 14.6645 11.4323C15.1156 11.2682 15.8129 11.3092 16.2465 11.526Z" fill="#696969"/>
<path d="M8.37735 17.1744C7.77383 17.4733 7.74454 18.3522 8.33047 18.7096C8.51797 18.8209 8.63516 18.8268 12.5082 18.8268C16.1879 18.8268 16.5102 18.8209 16.6918 18.7213C17.3188 18.4049 17.3129 17.4674 16.6801 17.1803C16.4457 17.0748 16.2406 17.069 12.5082 17.069C8.88711 17.069 8.56485 17.0748 8.37735 17.1744Z" fill="#696969"/>
<path d="M19.7152 17.151C19.475 17.2565 19.2172 17.567 19.2055 17.7604C19.182 18.2584 19.2992 18.5162 19.6273 18.7037C19.8324 18.8151 19.9379 18.8268 20.9984 18.8268C22.2406 18.8268 22.3344 18.8092 22.6098 18.5104C22.8266 18.2819 22.85 17.7604 22.6625 17.4791C22.4106 17.1041 22.2582 17.069 21.0043 17.069C20.2133 17.0748 19.8383 17.0983 19.7152 17.151Z" fill="#696969"/>
<path d="M8.47696 20.901C8.20743 21.0006 8.10196 21.0885 7.99063 21.3053C7.78555 21.6979 7.9379 22.2545 8.30704 22.4713C8.4711 22.5709 8.78165 22.5768 12.5258 22.5768H16.5629L16.7621 22.442C17.2953 22.0846 17.2836 21.3815 16.7328 20.9713C16.5746 20.8483 16.5102 20.8483 12.6371 20.8365C9.4379 20.8248 8.6586 20.8365 8.47696 20.901Z" fill="#696969"/>
<path d="M19.7856 20.901C19.5102 21.0006 19.4106 21.0885 19.2992 21.3053C19.0941 21.692 19.2348 22.2487 19.5863 22.4596C19.7563 22.5651 19.8852 22.5768 21.0043 22.5768C22.3578 22.5768 22.434 22.5592 22.6801 22.1901C22.8324 21.9615 22.8266 21.4928 22.6742 21.2467C22.4574 20.8893 22.2992 20.8483 21.0922 20.8365C20.2836 20.8248 19.9496 20.8424 19.7856 20.901Z" fill="#696969"/>
<path d="M8.40665 24.6862C8.21329 24.7623 7.96133 25.0729 7.91446 25.278C7.82071 25.7116 8.01407 26.1041 8.40665 26.2741C8.65274 26.3854 8.8168 26.3854 12.6195 26.3737C16.5043 26.3561 16.5746 26.3561 16.7328 26.233C17.2836 25.8229 17.2953 25.1198 16.7621 24.7623L16.5629 24.6276L12.5434 24.6334C10.3344 24.6334 8.4711 24.6569 8.40665 24.6862Z" fill="#696969"/>
<path d="M19.6449 24.7213C19.141 24.9733 19.0531 25.7819 19.4867 26.1569C19.7035 26.3444 19.9906 26.3854 21.0277 26.3854C22.1996 26.3854 22.4574 26.3151 22.6742 25.9635C22.932 25.5416 22.768 24.9205 22.3578 24.7213C22.0648 24.5865 19.9203 24.5865 19.6449 24.7213Z" fill="#696969"/>
</g>
<defs>
<clipPath id="clip0_299_528">
<rect width="30" height="30" fill="white" transform="translate(0.350006 0.135376)"/>
</clipPath>
</defs>
</svg>
