<svg width="30" height="31" viewBox="0 0 30 31" fill="none" xmlns="http://www.w3.org/2000/svg">
<path d="M5.55469 1.84576C5.00391 2.01569 4.44727 2.55475 4.20703 3.14655L4.07227 3.48053V14.8477V26.2149L4.21289 26.5665C4.38281 26.9883 4.875 27.504 5.29688 27.6973C6.0293 28.043 6.88477 27.9727 7.50586 27.5215C7.98047 27.1758 8.36133 27.0997 8.75977 27.2637C8.87109 27.3106 9.18164 27.5567 9.45117 27.8087C10.1777 28.4883 10.8047 28.7637 11.6602 28.7637C12.5332 28.7637 13.2129 28.4708 13.9395 27.7911C14.4609 27.3047 14.6719 27.1817 15 27.1817C15.3574 27.1817 15.5684 27.2989 16.1191 27.8028C16.875 28.5001 17.4844 28.7637 18.3398 28.7637C19.207 28.7637 19.793 28.5059 20.5781 27.7969C20.877 27.5215 21.2109 27.2696 21.3164 27.2344C21.6563 27.1231 22.0254 27.1934 22.3828 27.4395C22.9688 27.8438 23.4844 27.9786 24.0938 27.879C25.0137 27.7325 25.7285 27.0352 25.8984 26.1153C25.9805 25.6993 25.9746 3.98444 25.8984 3.56256C25.7637 2.85944 25.3125 2.25592 24.6797 1.94537L24.3457 1.78131L15.0879 1.76959C7.17773 1.76373 5.78906 1.76959 5.55469 1.84576ZM23.9883 3.75592C24.0703 3.87311 24.082 5.02155 24.082 14.836C24.082 22.2715 24.0645 25.8223 24.0234 25.8985C23.9297 26.0684 23.666 26.0391 23.3262 25.8106C22.1309 25.002 20.625 25.1837 19.459 26.2735C18.9023 26.795 18.7266 26.8887 18.3398 26.8887C17.9531 26.8887 17.7773 26.795 17.2324 26.2852C16.7168 25.8047 16.2363 25.5235 15.6973 25.3946C14.6367 25.1485 13.6816 25.4415 12.75 26.3028C12.1816 26.8301 12.0762 26.8887 11.6426 26.8887C11.2734 26.8887 11.1387 26.8126 10.5293 26.2501C9.77344 25.5528 9.01758 25.2657 8.10938 25.3243C7.57031 25.3653 7.16016 25.5059 6.64453 25.8399C6.3457 26.0333 6.26367 26.0626 6.14063 26.0157C6.05859 25.9864 5.97656 25.9161 5.95313 25.8633C5.93555 25.8106 5.91797 20.8419 5.91797 14.8243C5.91797 5.02155 5.92969 3.87311 6.01172 3.75592L6.09961 3.62701H15H23.9004L23.9883 3.75592Z" fill="#696969"/>
<path d="M9.49218 6.53326C8.51367 6.95514 8.52539 8.39654 9.5039 8.81256C10.3066 9.14654 11.2441 8.54303 11.25 7.6817C11.2559 6.80279 10.3066 6.1817 9.49218 6.53326Z" fill="#696969"/>
<path d="M12.7441 6.81451C12.3516 6.98444 12.1289 7.43561 12.2109 7.87506C12.2637 8.15045 12.5566 8.47272 12.8203 8.54889C12.9668 8.59576 14.2266 8.60748 16.6816 8.59576C20.2734 8.57819 20.3262 8.57819 20.4902 8.45514C21.0645 8.0274 21.0645 7.31256 20.4902 6.88483C20.3262 6.76178 20.2734 6.76178 16.623 6.75006C13.6348 6.73834 12.8848 6.75006 12.7441 6.81451Z" fill="#696969"/>
<path d="M9.65626 12.7208C9.53321 12.7501 9.31641 12.8848 9.17579 13.0137C8.51368 13.588 8.6543 14.6251 9.43946 15.0176C9.95508 15.2755 10.4707 15.1934 10.875 14.7891C11.7656 13.8985 10.875 12.3809 9.65626 12.7208Z" fill="#696969"/>
<path d="M12.6562 13.1309C12.375 13.3243 12.2344 13.5411 12.2051 13.834C12.1641 14.1739 12.3398 14.5255 12.6387 14.7071L12.8613 14.8477L16.4941 14.8653L20.1269 14.877L20.3906 14.7481C20.7773 14.5489 20.9355 14.2852 20.9062 13.8751C20.8769 13.4942 20.7187 13.2364 20.4258 13.0958C20.25 13.0137 19.8223 13.002 16.5352 13.002H12.8496L12.6562 13.1309Z" fill="#696969"/>
<path d="M9.43945 19.0723C8.66602 19.459 8.51953 20.4141 9.14063 21.0294C9.75586 21.6505 10.7109 21.504 11.0977 20.7305C11.3496 20.2149 11.2734 19.6993 10.8691 19.3008C10.4707 18.8965 9.95508 18.8204 9.43945 19.0723Z" fill="#696969"/>
<path d="M12.8145 19.295C12.5273 19.4005 12.4395 19.4825 12.293 19.7637C12.0762 20.1915 12.2168 20.6602 12.6562 20.9532L12.8496 21.088H16.5352C19.8223 21.088 20.25 21.0762 20.4258 20.9942C20.7187 20.8536 20.8769 20.5958 20.9062 20.2149C20.9355 19.8047 20.7773 19.5411 20.3906 19.3419L20.1328 19.213H16.582C13.7695 19.2188 12.9902 19.2364 12.8145 19.295Z" fill="#696969"/>
</svg>
