<svg width="26" height="27" viewBox="0 0 26 27" fill="none" xmlns="http://www.w3.org/2000/svg">
<path d="M6.39843 3.52759C5.63164 3.69517 4.92578 4.21314 4.58554 4.85298C4.49414 5.02564 4.03203 6.24439 3.55468 7.56978L2.68633 9.97681L2.71172 10.4897C2.75742 11.4495 3.0164 12.0944 3.62578 12.7647L3.80859 12.9678V17.3401C3.80859 21.0725 3.81875 21.753 3.88476 22.0069C4.12343 22.9209 4.81406 23.6471 5.71289 23.9315L6.06836 24.0432H13H19.9316L20.2871 23.9315C21.1809 23.6522 21.8766 22.9159 22.1152 22.0018C22.1812 21.753 22.1914 21.0471 22.1914 17.3401V12.9678L22.3742 12.7647C22.9887 12.0893 23.2426 11.4444 23.2934 10.4592L23.3187 9.92603L22.4555 7.53931C21.9832 6.22407 21.5363 5.03579 21.4652 4.89868C21.1809 4.32993 20.5613 3.81196 19.9113 3.58853L19.5762 3.47681L13.1523 3.46665C7.77968 3.46157 6.67265 3.47173 6.39843 3.52759ZM10.1562 4.62954C10.1562 4.69556 9.36914 9.1186 9.31836 9.32681L9.29297 9.4436H6.67773C4.70742 9.4436 4.0625 9.42837 4.0625 9.38267C4.0625 9.30649 5.41836 5.60454 5.51992 5.41665C5.69765 5.06626 6.1039 4.73618 6.5 4.61431C6.57109 4.59399 7.41914 4.57368 8.39414 4.57368C9.77031 4.5686 10.1562 4.58384 10.1562 4.62954ZM14.7266 4.58892C14.7266 4.60415 14.9195 5.68071 15.1582 6.99087C15.3969 8.29595 15.5898 9.38267 15.5898 9.40298C15.5898 9.42837 14.4269 9.4436 13 9.4436C11.5781 9.4436 10.4102 9.42837 10.4102 9.40298C10.4102 9.38267 10.6031 8.29595 10.8418 6.99087C11.0805 5.68071 11.2734 4.60415 11.2734 4.58892C11.2734 4.57876 12.0504 4.5686 13 4.5686C13.9496 4.5686 14.7266 4.57876 14.7266 4.58892ZM19.7844 4.7311C20.0535 4.87329 20.3531 5.1729 20.4852 5.42173C20.5715 5.58931 21.9375 9.33189 21.9375 9.3979C21.9375 9.42329 20.7898 9.4436 19.3223 9.4436H16.707L16.6816 9.32681C16.6309 9.10845 15.8437 4.69556 15.8437 4.62954C15.8437 4.57876 16.1891 4.5686 17.6871 4.57876L19.5254 4.59399L19.7844 4.7311ZM9.1914 10.6776C9.1914 10.9061 9.05429 11.353 8.90703 11.6069C8.74961 11.876 8.30273 12.2975 8.02851 12.4397C7.68828 12.6073 7.1957 12.6936 6.5 12.6936C5.80429 12.6936 5.31172 12.6073 4.97148 12.4397C4.69726 12.2975 4.25039 11.876 4.09297 11.6069C3.9457 11.353 3.80859 10.9061 3.80859 10.6776V10.51H6.5H9.1914V10.6776ZM15.6914 10.6776C15.6914 10.9061 15.5543 11.353 15.407 11.6069C15.2496 11.876 14.8027 12.2975 14.5285 12.4397C14.1883 12.6073 13.6957 12.6936 13 12.6936C12.3043 12.6936 11.8117 12.6073 11.4715 12.4397C11.1973 12.2975 10.7504 11.876 10.593 11.6069C10.4457 11.353 10.3086 10.9061 10.3086 10.6776V10.51H13H15.6914V10.6776ZM22.1914 10.6776C22.1914 10.9061 22.0543 11.353 21.907 11.6069C21.7496 11.876 21.3027 12.2975 21.0285 12.4397C20.6883 12.6073 20.1957 12.6936 19.5 12.6936C18.8043 12.6936 18.3117 12.6073 17.9715 12.4397C17.6973 12.2975 17.2504 11.876 17.093 11.6069C16.9457 11.353 16.8086 10.9061 16.8086 10.6776V10.51H19.5H22.1914V10.6776ZM9.97343 12.592C10.3492 13.0846 10.9891 13.4756 11.7203 13.6635C12.0961 13.7549 12.2535 13.7651 13.1422 13.7499C14.0816 13.7295 14.168 13.7194 14.5691 13.5823C15.1887 13.369 15.7269 12.9881 16.1129 12.4905L16.25 12.3127L16.3871 12.4905C16.7781 13.0034 17.3824 13.4198 18.0273 13.6178C18.3777 13.7245 18.4945 13.7346 19.5254 13.7295C20.409 13.7295 20.6934 13.7143 20.8863 13.6483L21.125 13.567L21.1148 17.66L21.0996 21.7581L20.9574 22.0475C20.8051 22.3624 20.5359 22.6315 20.2008 22.8092C19.9875 22.9209 19.9367 22.926 18.398 22.9413L16.8137 22.9565L16.7984 20.3514L16.7832 17.7463L16.6512 17.467C16.4023 16.9389 16.0773 16.6596 15.5391 16.5225C15.2852 16.4616 14.8586 16.4514 12.8629 16.4616L10.4863 16.4768L10.1816 16.619C9.78554 16.8018 9.53672 17.0506 9.35898 17.4366L9.21679 17.7463L9.20156 20.3514L9.18632 22.9565L7.60195 22.9413C6.06328 22.926 6.0125 22.9209 5.79922 22.8092C5.46406 22.6315 5.19492 22.3624 5.04257 22.0475L4.90039 21.7581L4.88515 17.66L4.875 13.567L5.11367 13.6432C5.28632 13.7042 5.64179 13.7295 6.35273 13.7499C7.2414 13.7702 7.39882 13.76 7.76445 13.6635C8.51601 13.4756 9.16093 13.0795 9.55703 12.5514C9.64843 12.4346 9.73476 12.3381 9.75 12.3381C9.76523 12.3381 9.86679 12.4499 9.97343 12.592ZM15.5441 17.7159L15.6914 17.8631V20.4073V22.9514H13H10.3086V20.4073V17.8631L10.4559 17.7159L10.6031 17.5686H13H15.3969L15.5441 17.7159Z" fill="#696969"/>
</svg>
