<svg width="31" height="31" viewBox="0 0 31 31" fill="none" xmlns="http://www.w3.org/2000/svg">
<g clip-path="url(#clip0_320_504)">
<path d="M14.2852 3.92639C13.9453 4.0553 13.7871 4.47717 13.9629 4.79358C14.0918 5.04553 14.2676 5.11584 14.7246 5.11584H15.1055V5.46741C15.1055 5.81311 15.1055 5.81897 14.9355 5.81897C14.625 5.81897 13.6523 6.10022 13.1484 6.34045C11.4844 7.11975 10.2539 8.5553 9.74414 10.3014C9.67383 10.5592 9.5918 10.9108 9.56836 11.0748L9.52734 11.3854H8.13281H6.73828L6.42773 11.5494C6.19922 11.6666 6.06445 11.7897 5.93555 12.0006L5.75977 12.2819V13.2604V14.2389L5.93555 14.5201C6.06445 14.7311 6.19922 14.8541 6.42773 14.9713L6.73828 15.1354H10.3066H13.875V19.0319V22.9283L13.0898 23.4498C12.3809 23.9244 12.293 24.0065 12.1523 24.2819C11.9824 24.6217 11.9473 25.1139 12.0645 25.5299C12.1465 25.8229 12.5449 26.2213 12.8555 26.3151C13.2012 26.4147 18.2988 26.4147 18.6445 26.3151C18.9551 26.2213 19.3359 25.8405 19.4297 25.5299C19.5527 25.1139 19.5176 24.6334 19.3477 24.2819C19.207 24.0065 19.1191 23.9244 18.4102 23.4498L17.625 22.9283V19.0319V15.1354H20.8242C23.1914 15.1354 24.0879 15.1178 24.2695 15.0651C24.5801 14.9713 24.9609 14.5905 25.0547 14.2799C25.1484 13.9635 25.1484 12.5573 25.0547 12.2408C24.9609 11.9303 24.5801 11.5494 24.2695 11.4557C24.1172 11.4147 23.6426 11.3854 23.0039 11.3854H21.9785L21.9023 10.9576C21.5449 8.92444 20.2383 7.21936 18.3516 6.34045C17.8477 6.10022 16.875 5.81897 16.5645 5.81897C16.3945 5.81897 16.3945 5.81311 16.3945 5.46741V5.11584H16.7754C17.2324 5.11584 17.4082 5.04553 17.5371 4.79358C17.6719 4.55334 17.6191 4.24866 17.4141 4.0553C17.2676 3.91467 17.2559 3.91467 15.8203 3.90295C15.0234 3.89709 14.332 3.90881 14.2852 3.92639ZM16.9746 7.17249C17.8652 7.401 18.6914 7.88147 19.3301 8.54944C20.0566 9.31116 20.4258 10.0084 20.6367 11.0162L20.7188 11.3854H15.75H10.7871L10.834 11.1041C11.1211 9.58069 12.1289 8.25061 13.5527 7.52991C14.584 7.01428 15.8379 6.87952 16.9746 7.17249ZM23.8652 13.2604V13.8756L15.4453 13.8932L7.01953 13.9049V13.2604V12.6158L15.4453 12.6276L23.8652 12.6451V13.2604ZM16.4062 19.2545L16.4238 23.3737L16.5703 23.5963C16.6641 23.7311 17.0039 24.0123 17.4961 24.3405C18.1406 24.7799 18.2754 24.8912 18.2578 24.9967L18.2402 25.1256H15.75H13.2598L13.2422 24.9967C13.2246 24.8912 13.3477 24.7858 13.9395 24.3873C14.332 24.1237 14.7188 23.8424 14.8008 23.7545C15.1113 23.4147 15.1055 23.5201 15.1055 19.1725V15.1354H15.75H16.3945L16.4062 19.2545Z" fill="#696969"/>
<path d="M1.48242 10.2662C1.18359 10.401 0.890626 10.7291 0.796876 11.0397C0.732423 11.2623 0.779298 11.6959 1.25977 15.317C1.8457 19.7174 1.85156 19.7467 2.28516 20.1803L2.48438 20.3854L1.91016 22.9576C1.59961 24.3756 1.33594 25.6412 1.33594 25.776C1.33594 26.3502 2.06836 26.5963 2.4082 26.1393C2.49024 26.0338 2.66602 25.3365 2.98242 23.9127C3.24024 22.776 3.49805 21.5983 3.56836 21.2994L3.69141 20.7604L6.24609 20.7721L8.80078 20.7897L9.45703 23.4264C10.084 25.9283 10.125 26.069 10.3008 26.2213C10.5586 26.4557 10.8398 26.444 11.0977 26.1862C11.2441 26.0397 11.2969 25.9342 11.2969 25.7877C11.2969 25.6823 11.0215 24.5045 10.6875 23.1744L10.0781 20.7604H10.2363C10.4531 20.7545 10.8281 20.5729 11.0156 20.3737C11.373 19.9928 11.4316 19.5826 11.2324 18.8151C11.0215 17.9772 10.752 17.5963 10.1719 17.3033L9.81445 17.1276H7.6582H5.50195L5.44336 16.9049C4.70508 14.1217 3.83203 10.9225 3.76758 10.8053C3.65625 10.5826 3.39258 10.3483 3.14063 10.2487C2.81836 10.1139 1.79297 10.1198 1.48242 10.2662ZM2.68359 11.4088C2.68359 11.4791 4.39453 17.8248 4.45313 17.9713C4.48828 18.0592 4.59961 18.1881 4.69922 18.2467C4.86914 18.3522 5.0332 18.358 7.18359 18.358C9.67383 18.358 9.73828 18.3639 9.87305 18.6686C9.91406 18.7506 9.97266 18.9323 10.0078 19.0729C10.043 19.2076 10.0898 19.3717 10.1016 19.4303C10.1309 19.5299 9.9668 19.5299 6.76172 19.5182L3.38672 19.5006L3.21094 19.319L3.0293 19.1432L2.53711 15.4225C2.26758 13.3834 2.02734 11.6373 2.01563 11.5436C1.98633 11.3854 1.98633 11.3854 2.33203 11.3854C2.52539 11.3854 2.68359 11.3971 2.68359 11.4088Z" fill="#696969"/>
<path d="M28.3477 10.2487C28.1074 10.3541 27.8438 10.5885 27.7324 10.8053C27.668 10.9225 26.7949 14.1217 26.0566 16.9049L25.998 17.1276H23.8418H21.6855L21.3281 17.3033C20.9473 17.4967 20.6836 17.7545 20.502 18.1178C20.3438 18.4166 20.1445 19.2311 20.1445 19.5416C20.1504 20.069 20.5488 20.5787 21.0527 20.7076C21.1992 20.7428 21.3164 20.8072 21.3164 20.8483C21.3164 20.8834 21.0527 21.9791 20.7305 23.274C20.4082 24.569 20.1445 25.694 20.1445 25.7701C20.1445 26.1451 20.4902 26.4322 20.8594 26.3619C21.2637 26.2858 21.2754 26.2623 21.9785 23.403L22.6289 20.7604H25.1895H27.75L27.791 20.9479C27.8145 21.0533 28.0781 22.2428 28.3828 23.5963C28.9746 26.2623 28.9863 26.2858 29.3906 26.3619C29.7715 26.4322 30.1055 26.1451 30.1055 25.7526C30.1055 25.6647 29.8477 24.4283 29.5313 23.0045L28.957 20.4205L29.1855 20.192C29.6543 19.7467 29.6484 19.7584 30.2344 15.3229C30.8262 10.858 30.8203 11.0162 30.4395 10.5826C30.1406 10.2428 29.8828 10.1549 29.168 10.1608C28.752 10.1608 28.4883 10.1901 28.3477 10.2487ZM29.4785 11.5436C29.4668 11.6373 29.2324 13.3776 28.9629 15.4225L28.4707 19.1432L28.2891 19.319L28.1133 19.5006L24.7383 19.5182C21.5332 19.5299 21.3691 19.5299 21.3984 19.4303C21.4102 19.3717 21.457 19.2076 21.4922 19.0729C21.5273 18.9322 21.5859 18.7506 21.627 18.6686C21.7617 18.3639 21.8262 18.358 24.3164 18.358C26.4668 18.358 26.6309 18.3522 26.8008 18.2467C26.9004 18.1881 27.0117 18.0592 27.0469 17.9713C27.0996 17.8424 28.2422 13.6061 28.7637 11.6022L28.8223 11.3854H29.1621C29.4961 11.3854 29.502 11.3854 29.4785 11.5436Z" fill="#696969"/>
</g>
<defs>
<clipPath id="clip0_320_504">
<rect width="30" height="30" fill="white" transform="translate(0.75 0.135376)"/>
</clipPath>
</defs>
</svg>
