<!DOCTYPE svg PUBLIC "-//W3C//DTD SVG 1.1//EN" "http://www.w3.org/Graphics/SVG/1.1/DTD/svg11.dtd">
<!-- Uploaded to: SVG Repo, www.svgrepo.com, Transformed by: SVG Repo Mixer Tools -->
<svg width="800px" height="800px" viewBox="0 0 24 24" xmlns="http://www.w3.org/2000/svg" fill="none">
<g id="SVGRepo_bgCarrier" stroke-width="0"/>
<g id="SVGRepo_tracerCarrier" stroke-linecap="round" stroke-linejoin="round"/>
<g id="SVGRepo_iconCarrier"> <path stroke="#ffffff" stroke-linecap="round" stroke-linejoin="round" stroke-width="2" d="M8.5 12.5L11 15l4.5-4.5m-.595-5.512l-.48-.659a3 3 0 00-4.85 0l-.48.659-.804-.127a3 3 0 00-3.43 3.43l.127.804-.659.48a3 3 0 000 4.85l.659.48-.127.804a3 3 0 003.43 3.43l.804-.127.48.659a3 3 0 004.85 0l.48-.659.804.127a3 3 0 003.43-3.43l-.127-.804.659-.48a3 3 0 000-4.85l-.659-.48.127-.804a3 3 0 00-3.43-3.43l-.804.127z"/> </g>
</svg>