<svg width="24" height="25" viewBox="0 0 24 25" fill="none" xmlns="http://www.w3.org/2000/svg">
<path d="M4.0875 1.86907C3.22969 1.97688 2.33437 2.47376 1.77656 3.14876C1.51406 3.46751 1.16719 4.13313 1.04531 4.55969C0.965625 4.82219 0.960937 5.35657 0.946875 12.2566C0.932812 20.5534 0.914062 20.0284 1.27031 20.755C1.425 21.0691 1.55156 21.2331 1.84687 21.5284C2.26406 21.9409 2.5875 22.1378 3.14062 22.3113L3.49219 22.4191H12H20.5078L20.8594 22.3113C21.4125 22.1378 21.7359 21.9409 22.1531 21.5284C22.4484 21.2331 22.575 21.0691 22.7297 20.755C23.0813 20.0331 23.0672 20.4081 23.0531 13.5222L23.0391 7.37219L22.9078 6.99719C22.7344 6.50501 22.5094 6.14876 22.1672 5.80657C21.825 5.46438 21.4688 5.23938 20.9766 5.06594L20.6016 4.93469L11.3578 4.92063L2.10937 4.91126L2.22656 4.60188C2.50781 3.85657 3.075 3.32688 3.89063 3.05501C4.13906 2.97063 4.52344 2.96594 12.7734 2.94251C19.6594 2.92376 21.4219 2.90501 21.5016 2.85813C21.7453 2.72219 21.8156 2.37063 21.6563 2.10813C21.4641 1.79876 22.0875 1.81751 12.8109 1.82219C8.175 1.82688 4.24688 1.84563 4.0875 1.86907ZM20.7047 6.15813C21.0563 6.30344 21.3844 6.56126 21.5766 6.84251C21.9094 7.32532 21.9094 7.33001 21.9281 9.16282L21.9422 10.8175H20.2406C18.3422 10.8175 18.2438 10.8269 17.625 11.1316C17.1422 11.3659 16.6266 11.8769 16.3922 12.3644C16.1344 12.8894 16.0641 13.2363 16.0922 13.7941C16.1203 14.3847 16.2422 14.7784 16.5375 15.2284C16.8938 15.7722 17.4094 16.1706 18.0609 16.405C18.3375 16.5034 18.4359 16.5081 20.1469 16.5269L21.9375 16.5409V18.0738C21.9375 18.9363 21.9141 19.6956 21.8859 19.8128C21.7172 20.5441 21.1031 21.1253 20.3438 21.2706C20.0016 21.3363 3.99844 21.3363 3.65625 21.2706C3.11719 21.1675 2.58281 20.8019 2.32031 20.3566C2.05312 19.8925 2.0625 20.2113 2.0625 12.8238V6.03626L11.2641 6.04563L20.4609 6.05969L20.7047 6.15813ZM21.9375 13.6769V15.4159L20.2172 15.4019L18.4922 15.3878L18.1875 15.2425C16.7625 14.5581 16.8609 12.5425 18.3422 12.0316C18.5578 11.9566 18.7734 11.9472 20.2641 11.9425H21.9375V13.6769Z" fill="#696969"/>
</svg>
